# xmcd
#
# Track frame offsets: 
#        150
#        16458
#        22476
#        31291
#        32502
#        49246
#        52435
#        58576
#        62876
#        87172
#        95285
#        104868
#        117724
#        121781
#        136405
#
# Disc length: 1944 seconds
#
# Revision: 0
# Processed by: cddbd v1.5.2PL0 Copyright (c) Steve Scherf et al.
# Submitted via: ExactAudioCopy v0.99pb5
#
DISCID=e007960f
DTITLE=Rebel Son - Bitch
DYEAR=2009
DGENRE=Country
TTITLE0=Every Single One
TTITLE1=Steppin' Towards You
TTITLE2=Drink Myself Drunk
TTITLE3=I Think About it All the Time
TTITLE4=Can't Afford
TTITLE5=You'd Think Again
TTITLE6=A Whole Lot Quicker
TTITLE7=Before I Fell in Love with You
TTITLE8=Dollars for the Devil
TTITLE9=Pour Me a Drink, Bitch
TTITLE10=You Can Try
TTITLE11=Demolition Woman
TTITLE12=I Sure Am Glad
TTITLE13=What a Bitch You Are
TTITLE14=The Ballad of Jane Death
EXTD=
EXTT0=
EXTT1=
EXTT2=
EXTT3=
EXTT4=
EXTT5=
EXTT6=
EXTT7=
EXTT8=
EXTT9=
EXTT10=
EXTT11=
EXTT12=
EXTT13=
EXTT14=
PLAYORDER=
